<svg xmlns="http://www.w3.org/2000/svg" xmlns:xlink="http://www.w3.org/1999/xlink" width="1600" zoomAndPan="magnify" viewBox="0 0 1200 525.000007" height="700" preserveAspectRatio="xMidYMid meet" version="1.0"><defs><clipPath id="c82a473675"><path d="M 5 243 L 281 243 L 281 490.316406 L 5 490.316406 Z M 5 243 " clip-rule="nonzero"/></clipPath><clipPath id="81831901b5"><path d="M 5 52.398438 L 281 52.398438 L 281 302 L 5 302 Z M 5 52.398438 " clip-rule="nonzero"/></clipPath></defs><path fill="#1e1e1c" d="M 471.910156 188.363281 L 515.972656 188.363281 L 515.972656 349.605469 L 473.558594 349.605469 L 470.953125 329.382812 C 460.199219 346.347656 437 352.898438 421.1875 353.203125 C 372.917969 353.546875 338.003906 322.179688 338.003906 268.945312 C 338.003906 215.710938 374.871094 184.074219 422.492188 184.6875 C 442.742188 184.6875 461.652344 192.539062 470.152344 206.898438 Z M 385.128906 268.984375 C 385.128906 295.792969 404.078125 311.417969 427.542969 311.417969 C 428.914062 311.460938 430.285156 311.4375 431.652344 311.34375 C 433.019531 311.253906 434.378906 311.09375 435.730469 310.863281 C 437.085938 310.636719 438.421875 310.34375 439.746094 309.980469 C 441.066406 309.621094 442.371094 309.195312 443.648438 308.707031 C 444.929688 308.21875 446.183594 307.664062 447.410156 307.050781 C 448.636719 306.4375 449.828125 305.765625 450.988281 305.03125 C 452.148438 304.300781 453.269531 303.511719 454.347656 302.667969 C 455.429688 301.824219 456.46875 300.929688 457.460938 299.980469 C 458.453125 299.035156 459.394531 298.042969 460.289062 297 C 461.183594 295.960938 462.023438 294.878906 462.808594 293.753906 C 463.597656 292.632812 464.324219 291.472656 464.996094 290.277344 C 465.667969 289.078125 466.277344 287.851562 466.828125 286.597656 C 467.378906 285.339844 467.863281 284.058594 468.289062 282.753906 C 468.710938 281.449219 469.066406 280.128906 469.359375 278.785156 C 469.652344 277.445312 469.875 276.09375 470.035156 274.730469 C 470.191406 273.371094 470.28125 272.003906 470.304688 270.628906 C 470.304688 247.460938 455.605469 226.242188 427.542969 226.242188 C 404.078125 226.316406 385.128906 242.289062 385.128906 269.058594 Z M 385.128906 268.984375 " fill-opacity="1" fill-rule="nonzero"/><path fill="#1e1e1c" d="M 586.753906 188.746094 L 590.351562 206.402344 C 591.539062 204.671875 592.832031 203.023438 594.226562 201.457031 C 595.621094 199.890625 597.109375 198.417969 598.691406 197.042969 C 600.273438 195.664062 601.9375 194.390625 603.679688 193.222656 C 605.421875 192.054688 607.230469 191 609.105469 190.0625 C 610.980469 189.121094 612.910156 188.304688 614.886719 187.609375 C 616.867188 186.914062 618.878906 186.347656 620.929688 185.90625 C 622.980469 185.464844 625.050781 185.15625 627.140625 184.976562 C 629.230469 184.800781 631.324219 184.753906 633.417969 184.839844 C 637.027344 184.746094 640.613281 184.996094 644.175781 185.589844 C 647.738281 186.183594 651.210938 187.113281 654.59375 188.371094 C 657.976562 189.632812 661.210938 191.203125 664.292969 193.082031 C 667.378906 194.960938 670.253906 197.117188 672.925781 199.546875 L 653.324219 236.734375 C 651.46875 235.382812 649.515625 234.1875 647.46875 233.148438 C 645.417969 232.113281 643.300781 231.246094 641.109375 230.554688 C 638.917969 229.859375 636.6875 229.347656 634.414062 229.015625 C 632.144531 228.683594 629.859375 228.539062 627.5625 228.578125 C 607.3125 228.578125 590.046875 241.636719 590.046875 265.804688 L 590.046875 349.679688 L 543.039062 349.679688 L 543.039062 188.824219 Z M 586.753906 188.746094 " fill-opacity="1" fill-rule="nonzero"/><path fill="#1e1e1c" d="M 728.699219 145.660156 C 728.699219 180.933594 675.105469 180.933594 675.105469 145.660156 C 675.105469 110.386719 728.699219 110.425781 728.699219 145.660156 Z M 678.4375 188.09375 L 678.4375 349.679688 L 725.445312 349.679688 L 725.445312 188.09375 Z M 678.4375 188.09375 " fill-opacity="1" fill-rule="nonzero"/><path fill="#1e1e1c" d="M 853.996094 234.324219 C 851.238281 232.320312 848.335938 230.558594 845.289062 229.039062 C 842.238281 227.519531 839.089844 226.257812 835.832031 225.257812 C 832.574219 224.257812 829.261719 223.53125 825.882812 223.078125 C 822.507812 222.628906 819.117188 222.457031 815.714844 222.566406 C 800.402344 222.566406 792.554688 228.117188 792.554688 235.96875 C 792.554688 244.777344 800.707031 249.679688 816.402344 249.988281 C 848.023438 250.984375 886.226562 257.648438 886.535156 301.921875 C 886.878906 328.003906 867.394531 356.078125 816.058594 356.078125 C 812.621094 356.179688 809.1875 356.117188 805.753906 355.894531 C 802.324219 355.671875 798.910156 355.289062 795.515625 354.746094 C 792.121094 354.203125 788.757812 353.5 785.429688 352.636719 C 782.097656 351.777344 778.816406 350.757812 775.585938 349.589844 C 772.351562 348.417969 769.179688 347.097656 766.070312 345.628906 C 762.960938 344.15625 759.929688 342.542969 756.972656 340.789062 C 754.015625 339.03125 751.148438 337.140625 748.371094 335.113281 C 745.589844 333.085938 742.914062 330.933594 740.339844 328.652344 L 760.589844 295.371094 C 764.484375 298.648438 768.636719 301.558594 773.046875 304.097656 C 777.457031 306.636719 782.054688 308.769531 786.84375 310.496094 C 791.632812 312.222656 796.535156 313.511719 801.550781 314.367188 C 806.566406 315.226562 811.621094 315.632812 816.710938 315.59375 C 830.414062 315.9375 841.171875 310.386719 840.863281 301.921875 C 840.863281 294.261719 835.3125 288.210938 813.457031 287.519531 C 783.441406 286.21875 745.890625 273.808594 745.890625 235.96875 C 745.890625 199.394531 780.34375 184.074219 815.40625 184.074219 C 840.214844 184.074219 860.121094 190.238281 877.078125 204.945312 Z M 853.996094 234.324219 " fill-opacity="1" fill-rule="nonzero"/><path fill="#1e1e1c" d="M 965.890625 144.355469 L 965.890625 189.398438 L 1006.660156 189.398438 L 1006.660156 228.578125 L 965.582031 228.578125 L 965.582031 289.320312 C 965.582031 306.289062 975.039062 310.84375 983.84375 310.84375 C 990.617188 310.867188 997.136719 309.589844 1003.40625 307.015625 L 1014.164062 346.195312 C 1003.277344 350.566406 991.96875 352.957031 980.246094 353.355469 C 945.332031 355.003906 918.996094 339.644531 918.996094 289.398438 L 918.996094 228.578125 L 890.285156 228.578125 L 890.285156 189.398438 L 918.84375 189.398438 L 918.84375 149.605469 Z M 965.890625 144.355469 " fill-opacity="1" fill-rule="nonzero"/><path fill="#1e1e1c" d="M 1150.558594 188.363281 L 1194.464844 188.363281 L 1194.464844 349.605469 L 1152.355469 349.605469 L 1149.753906 329.382812 C 1138.957031 346.347656 1115.796875 352.898438 1099.988281 353.203125 C 1051.679688 353.546875 1016.765625 322.179688 1016.765625 268.945312 C 1016.765625 215.710938 1053.628906 184.074219 1101.289062 184.6875 C 1121.503906 184.6875 1140.453125 192.539062 1148.910156 206.898438 Z M 1063.773438 268.984375 C 1063.773438 295.792969 1082.683594 311.417969 1106.191406 311.417969 C 1107.558594 311.460938 1108.925781 311.4375 1110.292969 311.34375 C 1111.65625 311.253906 1113.015625 311.09375 1114.367188 310.867188 C 1115.714844 310.640625 1117.050781 310.347656 1118.371094 309.984375 C 1119.695312 309.625 1120.992188 309.203125 1122.273438 308.714844 C 1123.550781 308.226562 1124.804688 307.675781 1126.027344 307.0625 C 1127.253906 306.449219 1128.445312 305.777344 1129.601562 305.046875 C 1130.757812 304.316406 1131.878906 303.527344 1132.957031 302.6875 C 1134.039062 301.84375 1135.074219 300.949219 1136.066406 300.007812 C 1137.054688 299.0625 1138 298.070312 1138.890625 297.03125 C 1139.785156 295.992188 1140.625 294.914062 1141.410156 293.792969 C 1142.195312 292.671875 1142.925781 291.511719 1143.597656 290.320312 C 1144.269531 289.125 1144.878906 287.902344 1145.429688 286.648438 C 1145.980469 285.394531 1146.464844 284.113281 1146.890625 282.8125 C 1147.3125 281.507812 1147.667969 280.1875 1147.960938 278.851562 C 1148.253906 277.511719 1148.480469 276.164062 1148.640625 274.800781 C 1148.796875 273.441406 1148.886719 272.078125 1148.910156 270.707031 C 1148.910156 247.535156 1134.25 226.316406 1106.191406 226.316406 C 1082.683594 226.316406 1063.773438 242.289062 1063.773438 269.058594 Z M 1063.773438 268.984375 " fill-opacity="1" fill-rule="nonzero"/><path fill="#1e1e1c" d="M 123.476562 175.800781 C 123.476562 176.265625 123.433594 176.722656 123.34375 177.175781 C 123.253906 177.628906 123.117188 178.070312 122.941406 178.496094 C 122.765625 178.925781 122.546875 179.332031 122.289062 179.714844 C 122.035156 180.101562 121.742188 180.457031 121.414062 180.785156 C 121.085938 181.109375 120.730469 181.402344 120.347656 181.660156 C 119.960938 181.917969 119.558594 182.132812 119.128906 182.3125 C 118.703125 182.488281 118.261719 182.621094 117.808594 182.710938 C 117.355469 182.804688 116.894531 182.847656 116.433594 182.847656 C 115.972656 182.847656 115.511719 182.804688 115.058594 182.710938 C 114.605469 182.621094 114.164062 182.488281 113.738281 182.3125 C 113.3125 182.132812 112.90625 181.917969 112.519531 181.660156 C 112.136719 181.402344 111.78125 181.109375 111.453125 180.785156 C 111.125 180.457031 110.835938 180.101562 110.578125 179.714844 C 110.320312 179.332031 110.101562 178.925781 109.925781 178.496094 C 109.75 178.070312 109.617188 177.628906 109.527344 177.175781 C 109.433594 176.722656 109.390625 176.265625 109.390625 175.800781 C 109.390625 175.339844 109.433594 174.878906 109.527344 174.425781 C 109.617188 173.972656 109.75 173.53125 109.925781 173.105469 C 110.101562 172.675781 110.320312 172.269531 110.578125 171.886719 C 110.835938 171.5 111.125 171.144531 111.453125 170.816406 C 111.78125 170.492188 112.136719 170.199219 112.519531 169.941406 C 112.90625 169.683594 113.3125 169.46875 113.738281 169.289062 C 114.164062 169.113281 114.605469 168.980469 115.058594 168.890625 C 115.511719 168.800781 115.972656 168.753906 116.433594 168.753906 C 116.894531 168.753906 117.355469 168.800781 117.808594 168.890625 C 118.261719 168.980469 118.703125 169.113281 119.128906 169.289062 C 119.558594 169.46875 119.960938 169.683594 120.347656 169.941406 C 120.730469 170.199219 121.085938 170.492188 121.414062 170.816406 C 121.742188 171.144531 122.035156 171.5 122.289062 171.886719 C 122.546875 172.269531 122.765625 172.675781 122.941406 173.105469 C 123.117188 173.53125 123.253906 173.972656 123.34375 174.425781 C 123.433594 174.878906 123.476562 175.339844 123.476562 175.800781 Z M 123.476562 175.800781 " fill-opacity="1" fill-rule="nonzero"/><path fill="#1e1e1c" d="M 178.945312 175.800781 C 178.945312 176.265625 178.902344 176.722656 178.8125 177.175781 C 178.722656 177.628906 178.585938 178.070312 178.410156 178.496094 C 178.234375 178.925781 178.015625 179.332031 177.761719 179.714844 C 177.503906 180.101562 177.210938 180.457031 176.882812 180.785156 C 176.558594 181.109375 176.199219 181.402344 175.816406 181.660156 C 175.433594 181.917969 175.027344 182.132812 174.597656 182.3125 C 174.171875 182.488281 173.730469 182.621094 173.277344 182.710938 C 172.824219 182.804688 172.367188 182.847656 171.902344 182.847656 C 171.441406 182.847656 170.984375 182.804688 170.527344 182.710938 C 170.074219 182.621094 169.636719 182.488281 169.207031 182.3125 C 168.78125 182.132812 168.375 181.917969 167.988281 181.660156 C 167.605469 181.402344 167.25 181.109375 166.921875 180.785156 C 166.59375 180.457031 166.304688 180.101562 166.046875 179.714844 C 165.789062 179.332031 165.574219 178.925781 165.394531 178.496094 C 165.21875 178.070312 165.085938 177.628906 164.996094 177.175781 C 164.90625 176.722656 164.859375 176.265625 164.859375 175.800781 C 164.859375 175.339844 164.90625 174.878906 164.996094 174.425781 C 165.085938 173.972656 165.21875 173.53125 165.394531 173.105469 C 165.574219 172.675781 165.789062 172.269531 166.046875 171.886719 C 166.304688 171.5 166.59375 171.144531 166.921875 170.816406 C 167.25 170.492188 167.605469 170.199219 167.988281 169.941406 C 168.375 169.683594 168.78125 169.46875 169.207031 169.289062 C 169.636719 169.113281 170.074219 168.980469 170.527344 168.890625 C 170.984375 168.800781 171.441406 168.753906 171.902344 168.753906 C 172.367188 168.753906 172.824219 168.800781 173.277344 168.890625 C 173.730469 168.980469 174.171875 169.113281 174.597656 169.289062 C 175.027344 169.46875 175.433594 169.683594 175.816406 169.941406 C 176.199219 170.199219 176.558594 170.492188 176.882812 170.816406 C 177.210938 171.144531 177.503906 171.5 177.761719 171.886719 C 178.015625 172.269531 178.234375 172.675781 178.410156 173.105469 C 178.585938 173.53125 178.722656 173.972656 178.8125 174.425781 C 178.902344 174.878906 178.945312 175.339844 178.945312 175.800781 Z M 178.945312 175.800781 " fill-opacity="1" fill-rule="nonzero"/><path fill="#2a519e" d="M 123.476562 363.238281 C 123.476562 363.703125 123.433594 364.160156 123.34375 364.613281 C 123.253906 365.066406 123.117188 365.507812 122.941406 365.933594 C 122.765625 366.363281 122.546875 366.769531 122.289062 367.152344 C 122.035156 367.539062 121.742188 367.894531 121.414062 368.222656 C 121.085938 368.546875 120.730469 368.839844 120.347656 369.097656 C 119.960938 369.355469 119.558594 369.570312 119.128906 369.75 C 118.703125 369.925781 118.261719 370.058594 117.808594 370.148438 C 117.355469 370.242188 116.894531 370.285156 116.433594 370.285156 C 115.972656 370.285156 115.511719 370.242188 115.058594 370.148438 C 114.605469 370.058594 114.164062 369.925781 113.738281 369.75 C 113.3125 369.570312 112.90625 369.355469 112.519531 369.097656 C 112.136719 368.839844 111.78125 368.546875 111.453125 368.222656 C 111.125 367.894531 110.835938 367.539062 110.578125 367.152344 C 110.320312 366.769531 110.101562 366.363281 109.925781 365.933594 C 109.75 365.507812 109.617188 365.066406 109.527344 364.613281 C 109.433594 364.160156 109.390625 363.703125 109.390625 363.238281 C 109.390625 362.777344 109.433594 362.316406 109.527344 361.863281 C 109.617188 361.410156 109.75 360.96875 109.925781 360.542969 C 110.101562 360.113281 110.320312 359.707031 110.578125 359.324219 C 110.835938 358.9375 111.125 358.582031 111.453125 358.253906 C 111.78125 357.929688 112.136719 357.636719 112.519531 357.378906 C 112.90625 357.121094 113.3125 356.90625 113.738281 356.726562 C 114.164062 356.550781 114.605469 356.417969 115.058594 356.328125 C 115.511719 356.238281 115.972656 356.191406 116.433594 356.191406 C 116.894531 356.191406 117.355469 356.238281 117.808594 356.328125 C 118.261719 356.417969 118.703125 356.550781 119.128906 356.726562 C 119.558594 356.90625 119.960938 357.121094 120.347656 357.378906 C 120.730469 357.636719 121.085938 357.929688 121.414062 358.253906 C 121.742188 358.582031 122.035156 358.9375 122.289062 359.324219 C 122.546875 359.707031 122.765625 360.113281 122.941406 360.542969 C 123.117188 360.96875 123.253906 361.410156 123.34375 361.863281 C 123.433594 362.316406 123.476562 362.777344 123.476562 363.238281 Z M 123.476562 363.238281 " fill-opacity="1" fill-rule="nonzero"/><path fill="#2a519e" d="M 178.945312 363.238281 C 178.945312 363.703125 178.902344 364.160156 178.8125 364.613281 C 178.722656 365.066406 178.585938 365.507812 178.410156 365.933594 C 178.234375 366.363281 178.015625 366.769531 177.761719 367.152344 C 177.503906 367.539062 177.210938 367.894531 176.882812 368.222656 C 176.558594 368.546875 176.199219 368.839844 175.816406 369.097656 C 175.433594 369.355469 175.027344 369.570312 174.597656 369.75 C 174.171875 369.925781 173.730469 370.058594 173.277344 370.148438 C 172.824219 370.242188 172.367188 370.285156 171.902344 370.285156 C 171.441406 370.285156 170.984375 370.242188 170.527344 370.148438 C 170.074219 370.058594 169.636719 369.925781 169.207031 369.75 C 168.78125 369.570312 168.375 369.355469 167.988281 369.097656 C 167.605469 368.839844 167.25 368.546875 166.921875 368.222656 C 166.59375 367.894531 166.304688 367.539062 166.046875 367.152344 C 165.789062 366.769531 165.574219 366.363281 165.394531 365.933594 C 165.21875 365.507812 165.085938 365.066406 164.996094 364.613281 C 164.90625 364.160156 164.859375 363.703125 164.859375 363.238281 C 164.859375 362.777344 164.90625 362.316406 164.996094 361.863281 C 165.085938 361.410156 165.21875 360.96875 165.394531 360.542969 C 165.574219 360.113281 165.789062 359.707031 166.046875 359.324219 C 166.304688 358.9375 166.59375 358.582031 166.921875 358.253906 C 167.25 357.929688 167.605469 357.636719 167.988281 357.378906 C 168.375 357.121094 168.78125 356.90625 169.207031 356.726562 C 169.636719 356.550781 170.074219 356.417969 170.527344 356.328125 C 170.984375 356.238281 171.441406 356.191406 171.902344 356.191406 C 172.367188 356.191406 172.824219 356.238281 173.277344 356.328125 C 173.730469 356.417969 174.171875 356.550781 174.597656 356.726562 C 175.027344 356.90625 175.433594 357.121094 175.816406 357.378906 C 176.199219 357.636719 176.558594 357.929688 176.882812 358.253906 C 177.210938 358.582031 177.503906 358.9375 177.761719 359.324219 C 178.015625 359.707031 178.234375 360.113281 178.410156 360.542969 C 178.585938 360.96875 178.722656 361.410156 178.8125 361.863281 C 178.902344 362.316406 178.945312 362.777344 178.945312 363.238281 Z M 178.945312 363.238281 " fill-opacity="1" fill-rule="nonzero"/><g clip-path="url(#c82a473675)"><path fill="#2a519e" d="M 192.917969 243.285156 L 192.917969 243.015625 L 115.589844 243.015625 L 115.589844 301.691406 L 221.515625 301.691406 L 221.515625 367.03125 C 221.515625 368.1875 221.488281 369.34375 221.429688 370.5 C 221.375 371.65625 221.289062 372.808594 221.175781 373.960938 C 221.0625 375.113281 220.921875 376.257812 220.75 377.402344 C 220.582031 378.546875 220.382812 379.6875 220.15625 380.824219 C 219.933594 381.957031 219.679688 383.085938 219.398438 384.210938 C 219.117188 385.332031 218.808594 386.445312 218.472656 387.554688 C 218.136719 388.660156 217.773438 389.757812 217.382812 390.847656 C 216.996094 391.9375 216.578125 393.015625 216.136719 394.085938 C 215.695312 395.15625 215.226562 396.210938 214.730469 397.257812 C 214.234375 398.304688 213.714844 399.335938 213.171875 400.359375 C 212.625 401.378906 212.054688 402.386719 211.460938 403.378906 C 210.867188 404.371094 210.25 405.347656 209.605469 406.308594 C 208.964844 407.269531 208.296875 408.21875 207.609375 409.148438 C 206.917969 410.074219 206.207031 410.988281 205.476562 411.882812 C 204.742188 412.777344 203.984375 413.652344 203.210938 414.511719 C 202.433594 415.367188 201.636719 416.203125 200.816406 417.023438 C 200 417.839844 199.164062 418.640625 198.304688 419.414062 C 197.449219 420.191406 196.574219 420.949219 195.679688 421.683594 C 194.785156 422.417969 193.875 423.128906 192.945312 423.816406 C 192.015625 424.507812 191.070312 425.171875 190.109375 425.816406 C 189.148438 426.457031 188.171875 427.078125 187.179688 427.671875 C 186.1875 428.265625 185.179688 428.835938 184.160156 429.382812 C 183.140625 429.929688 182.109375 430.449219 181.0625 430.941406 C 180.015625 431.4375 178.960938 431.90625 177.890625 432.347656 C 176.824219 432.792969 175.746094 433.207031 174.65625 433.597656 C 173.566406 433.988281 172.46875 434.351562 171.363281 434.6875 C 170.253906 435.023438 169.140625 435.332031 168.019531 435.613281 C 166.898438 435.894531 165.769531 436.148438 164.636719 436.371094 C 163.5 436.597656 162.363281 436.796875 161.21875 436.964844 C 160.074219 437.136719 158.925781 437.277344 157.773438 437.390625 C 156.625 437.503906 155.472656 437.589844 154.316406 437.644531 C 153.160156 437.703125 152.003906 437.730469 150.847656 437.730469 L 131.441406 437.730469 C 130.285156 437.730469 129.128906 437.703125 127.972656 437.644531 C 126.816406 437.589844 125.664062 437.503906 124.511719 437.390625 C 123.363281 437.277344 122.214844 437.136719 121.070312 436.964844 C 119.925781 436.796875 118.789062 436.597656 117.652344 436.371094 C 116.519531 436.148438 115.390625 435.894531 114.269531 435.613281 C 113.148438 435.332031 112.035156 435.023438 110.925781 434.6875 C 109.820312 434.351562 108.722656 433.988281 107.632812 433.597656 C 106.542969 433.207031 105.464844 432.792969 104.398438 432.347656 C 103.328125 431.90625 102.273438 431.4375 101.226562 430.941406 C 100.179688 430.449219 99.148438 429.929688 98.128906 429.382812 C 97.109375 428.835938 96.101562 428.265625 95.109375 427.671875 C 94.117188 427.078125 93.140625 426.457031 92.179688 425.816406 C 91.21875 425.171875 90.273438 424.507812 89.34375 423.816406 C 88.414062 423.128906 87.503906 422.417969 86.609375 421.683594 C 85.714844 420.949219 84.839844 420.191406 83.984375 419.414062 C 83.125 418.640625 82.289062 417.839844 81.472656 417.023438 C 80.652344 416.203125 79.855469 415.367188 79.078125 414.511719 C 78.304688 413.652344 77.546875 412.777344 76.8125 411.882812 C 76.082031 410.988281 75.367188 410.074219 74.679688 409.148438 C 73.992188 408.21875 73.324219 407.269531 72.683594 406.308594 C 72.039062 405.347656 71.421875 404.371094 70.828125 403.378906 C 70.234375 402.386719 69.664062 401.378906 69.117188 400.359375 C 68.574219 399.335938 68.050781 398.304688 67.558594 397.257812 C 67.0625 396.210938 66.59375 395.15625 66.152344 394.085938 C 65.710938 393.015625 65.292969 391.9375 64.902344 390.847656 C 64.515625 389.757812 64.152344 388.660156 63.816406 387.554688 C 63.480469 386.445312 63.171875 385.332031 62.890625 384.210938 C 62.609375 383.085938 62.355469 381.957031 62.132812 380.824219 C 61.90625 379.6875 61.707031 378.550781 61.539062 377.402344 C 61.367188 376.257812 61.226562 375.113281 61.113281 373.960938 C 61 372.808594 60.914062 371.65625 60.859375 370.5 C 60.800781 369.34375 60.773438 368.1875 60.773438 367.03125 L 60.773438 355.808594 L 5.457031 355.808594 C 5.484375 358.058594 5.566406 360.304688 5.703125 362.550781 C 5.839844 364.792969 6.03125 367.035156 6.277344 369.269531 C 6.523438 371.507812 6.824219 373.734375 7.179688 375.957031 C 7.535156 378.175781 7.945312 380.386719 8.410156 382.589844 C 8.875 384.789062 9.394531 386.976562 9.964844 389.152344 C 10.535156 391.328125 11.160156 393.488281 11.839844 395.632812 C 12.515625 397.777344 13.246094 399.902344 14.027344 402.011719 C 14.808594 404.121094 15.644531 406.210938 16.527344 408.277344 C 17.410156 410.34375 18.347656 412.390625 19.332031 414.414062 C 20.316406 416.433594 21.347656 418.429688 22.429688 420.402344 C 23.515625 422.375 24.644531 424.316406 25.820312 426.234375 C 27 428.148438 28.222656 430.035156 29.496094 431.890625 C 30.765625 433.746094 32.078125 435.570312 33.441406 437.359375 C 34.800781 439.152344 36.203125 440.910156 37.648438 442.628906 C 39.09375 444.351562 40.582031 446.039062 42.109375 447.6875 C 43.640625 449.335938 45.207031 450.949219 46.816406 452.519531 C 48.421875 454.09375 50.066406 455.625 51.75 457.117188 C 53.433594 458.605469 55.152344 460.054688 56.90625 461.464844 C 58.660156 462.871094 60.445312 464.234375 62.269531 465.554688 C 64.089844 466.871094 65.941406 468.144531 67.824219 469.375 C 69.707031 470.601562 71.621094 471.785156 73.5625 472.917969 C 75.5 474.054688 77.46875 475.140625 79.464844 476.179688 C 81.457031 477.214844 83.476562 478.203125 85.519531 479.144531 C 87.5625 480.082031 89.628906 480.96875 91.714844 481.808594 C 93.800781 482.644531 95.90625 483.429688 98.03125 484.164062 C 100.15625 484.898438 102.300781 485.578125 104.457031 486.207031 C 106.617188 486.835938 108.789062 487.414062 110.976562 487.933594 C 113.160156 488.457031 115.359375 488.925781 117.570312 489.339844 C 119.78125 489.753906 122 490.113281 124.226562 490.417969 C 126.453125 490.726562 128.6875 490.976562 130.925781 491.171875 C 133.164062 491.367188 135.410156 491.507812 137.65625 491.59375 C 139.902344 491.679688 142.148438 491.710938 144.398438 491.683594 C 146.644531 491.660156 148.890625 491.578125 151.136719 491.445312 C 153.378906 491.308594 155.617188 491.121094 157.855469 490.875 C 160.089844 490.628906 162.316406 490.332031 164.535156 489.976562 C 166.757812 489.621094 168.964844 489.214844 171.167969 488.75 C 173.367188 488.289062 175.554688 487.769531 177.726562 487.199219 C 179.902344 486.628906 182.0625 486.007812 184.207031 485.332031 C 186.351562 484.65625 188.476562 483.925781 190.585938 483.144531 C 192.695312 482.363281 194.78125 481.53125 196.847656 480.648438 C 198.917969 479.765625 200.960938 478.832031 202.984375 477.851562 C 205.003906 476.867188 207 475.832031 208.972656 474.753906 C 210.945312 473.671875 212.886719 472.542969 214.804688 471.363281 C 216.71875 470.1875 218.605469 468.964844 220.460938 467.695312 C 222.316406 466.425781 224.140625 465.109375 225.929688 463.75 C 227.722656 462.390625 229.480469 460.988281 231.203125 459.542969 C 232.925781 458.097656 234.609375 456.613281 236.261719 455.085938 C 237.910156 453.554688 239.519531 451.988281 241.09375 450.382812 C 242.667969 448.773438 244.199219 447.128906 245.691406 445.445312 C 247.183594 443.765625 248.632812 442.046875 250.039062 440.292969 C 251.449219 438.539062 252.8125 436.75 254.132812 434.929688 C 255.453125 433.109375 256.726562 431.257812 257.957031 429.375 C 259.1875 427.492188 260.367188 425.578125 261.503906 423.636719 C 262.640625 421.699219 263.726562 419.730469 264.765625 417.734375 C 265.804688 415.738281 266.792969 413.722656 267.734375 411.679688 C 268.675781 409.632812 269.5625 407.570312 270.402344 405.484375 C 271.242188 403.394531 272.027344 401.289062 272.761719 399.164062 C 273.5 397.039062 274.179688 394.894531 274.8125 392.738281 C 275.441406 390.578125 276.019531 388.40625 276.542969 386.21875 C 277.066406 384.03125 277.535156 381.832031 277.949219 379.621094 C 278.367188 377.410156 278.726562 375.191406 279.035156 372.964844 C 279.34375 370.734375 279.59375 368.5 279.792969 366.261719 C 279.988281 364.019531 280.132812 361.773438 280.21875 359.527344 C 280.304688 357.28125 280.339844 355.03125 280.316406 352.78125 L 280.316406 243.285156 Z M 192.917969 243.285156 " fill-opacity="1" fill-rule="nonzero"/></g><g clip-path="url(#81831901b5)"><path fill="#1e1e1c" d="M 60.734375 298.167969 L 60.734375 179.746094 C 60.734375 178.589844 60.761719 177.433594 60.820312 176.277344 C 60.875 175.121094 60.960938 173.96875 61.074219 172.816406 C 61.1875 171.664062 61.332031 170.515625 61.5 169.371094 C 61.667969 168.226562 61.867188 167.085938 62.09375 165.953125 C 62.320312 164.816406 62.570312 163.6875 62.851562 162.566406 C 63.132812 161.445312 63.441406 160.328125 63.777344 159.222656 C 64.113281 158.117188 64.476562 157.015625 64.867188 155.925781 C 65.253906 154.839844 65.671875 153.757812 66.113281 152.691406 C 66.558594 151.621094 67.023438 150.5625 67.519531 149.519531 C 68.015625 148.472656 68.535156 147.4375 69.078125 146.417969 C 69.625 145.398438 70.195312 144.390625 70.789062 143.398438 C 71.382812 142.40625 72.003906 141.429688 72.644531 140.464844 C 73.289062 139.503906 73.953125 138.558594 74.640625 137.628906 C 75.332031 136.699219 76.042969 135.789062 76.777344 134.894531 C 77.507812 134 78.265625 133.125 79.042969 132.265625 C 79.816406 131.410156 80.613281 130.570312 81.433594 129.753906 C 82.25 128.933594 83.089844 128.136719 83.945312 127.359375 C 84.800781 126.582031 85.675781 125.828125 86.570312 125.09375 C 87.464844 124.359375 88.375 123.648438 89.304688 122.957031 C 90.234375 122.269531 91.179688 121.601562 92.140625 120.960938 C 93.101562 120.316406 94.078125 119.699219 95.070312 119.105469 C 96.0625 118.507812 97.070312 117.9375 98.089844 117.394531 C 99.109375 116.847656 100.140625 116.328125 101.1875 115.832031 C 102.234375 115.339844 103.289062 114.871094 104.359375 114.425781 C 105.425781 113.984375 106.507812 113.566406 107.59375 113.179688 C 108.683594 112.789062 109.78125 112.425781 110.886719 112.089844 C 111.996094 111.753906 113.109375 111.445312 114.230469 111.164062 C 115.351562 110.882812 116.480469 110.628906 117.617188 110.402344 C 118.75 110.179688 119.890625 109.980469 121.03125 109.808594 C 122.175781 109.640625 123.324219 109.5 124.476562 109.386719 C 125.625 109.273438 126.777344 109.1875 127.933594 109.128906 C 129.089844 109.074219 130.246094 109.046875 131.402344 109.046875 L 150.808594 109.046875 C 151.964844 109.046875 153.121094 109.074219 154.277344 109.128906 C 155.433594 109.1875 156.585938 109.273438 157.738281 109.386719 C 158.886719 109.5 160.035156 109.640625 161.179688 109.808594 C 162.324219 109.980469 163.460938 110.179688 164.597656 110.402344 C 165.730469 110.628906 166.859375 110.882812 167.980469 111.164062 C 169.101562 111.445312 170.21875 111.753906 171.324219 112.089844 C 172.429688 112.425781 173.527344 112.789062 174.617188 113.179688 C 175.707031 113.566406 176.785156 113.984375 177.851562 114.425781 C 178.921875 114.871094 179.980469 115.339844 181.023438 115.832031 C 182.070312 116.328125 183.101562 116.847656 184.121094 117.394531 C 185.140625 117.9375 186.148438 118.507812 187.140625 119.105469 C 188.132812 119.699219 189.109375 120.316406 190.070312 120.960938 C 191.03125 121.601562 191.976562 122.269531 192.90625 122.957031 C 193.835938 123.648438 194.746094 124.359375 195.640625 125.09375 C 196.535156 125.828125 197.410156 126.582031 198.265625 127.359375 C 199.125 128.136719 199.960938 128.933594 200.777344 129.753906 C 201.597656 130.570312 202.394531 131.410156 203.171875 132.265625 C 203.949219 133.125 204.703125 134 205.4375 134.894531 C 206.171875 135.789062 206.882812 136.699219 207.570312 137.628906 C 208.257812 138.558594 208.925781 139.503906 209.566406 140.464844 C 210.210938 141.429688 210.828125 142.40625 211.421875 143.398438 C 212.019531 144.390625 212.585938 145.398438 213.132812 146.417969 C 213.679688 147.4375 214.199219 148.472656 214.691406 149.515625 C 215.1875 150.5625 215.65625 151.621094 216.097656 152.691406 C 216.539062 153.757812 216.957031 154.839844 217.347656 155.925781 C 217.734375 157.015625 218.097656 158.117188 218.433594 159.222656 C 218.769531 160.328125 219.078125 161.445312 219.359375 162.566406 C 219.640625 163.6875 219.894531 164.816406 220.121094 165.953125 C 220.34375 167.085938 220.542969 168.226562 220.710938 169.371094 C 220.882812 170.515625 221.023438 171.664062 221.136719 172.816406 C 221.25 173.96875 221.335938 175.121094 221.390625 176.277344 C 221.449219 177.433594 221.476562 178.589844 221.476562 179.746094 L 221.476562 183.574219 L 280.160156 183.574219 C 280.058594 181.394531 279.90625 179.214844 279.703125 177.042969 C 279.496094 174.867188 279.238281 172.699219 278.929688 170.539062 C 278.621094 168.375 278.261719 166.222656 277.851562 164.078125 C 277.441406 161.933594 276.980469 159.800781 276.464844 157.675781 C 275.953125 155.554688 275.390625 153.445312 274.777344 151.347656 C 274.164062 149.253906 273.5 147.171875 272.789062 145.109375 C 272.078125 143.042969 271.316406 140.996094 270.507812 138.96875 C 269.695312 136.941406 268.839844 134.933594 267.933594 132.945312 C 267.027344 130.960938 266.074219 128.996094 265.078125 127.054688 C 264.078125 125.109375 263.035156 123.195312 261.945312 121.300781 C 260.855469 119.410156 259.71875 117.546875 258.539062 115.707031 C 257.359375 113.871094 256.140625 112.0625 254.875 110.28125 C 253.609375 108.5 252.300781 106.753906 250.953125 105.035156 C 249.605469 103.316406 248.214844 101.632812 246.789062 99.984375 C 245.359375 98.332031 243.890625 96.714844 242.386719 95.132812 C 240.878906 93.554688 239.339844 92.007812 237.757812 90.5 C 236.179688 88.992188 234.566406 87.523438 232.917969 86.09375 C 231.269531 84.664062 229.585938 83.273438 227.871094 81.921875 C 226.15625 80.570312 224.40625 79.261719 222.628906 77.996094 C 220.851562 76.726562 219.046875 75.503906 217.210938 74.320312 C 215.375 73.140625 213.511719 72.003906 211.621094 70.910156 C 209.730469 69.820312 207.816406 68.773438 205.875 67.773438 C 203.933594 66.769531 201.972656 65.816406 199.988281 64.910156 C 198 64 195.996094 63.140625 193.96875 62.328125 C 191.941406 61.519531 189.898438 60.753906 187.835938 60.039062 C 185.773438 59.328125 183.695312 58.660156 181.601562 58.046875 C 179.503906 57.429688 177.398438 56.867188 175.277344 56.351562 C 173.15625 55.835938 171.023438 55.371094 168.878906 54.960938 C 166.734375 54.546875 164.582031 54.183594 162.421875 53.875 C 160.261719 53.5625 158.09375 53.304688 155.921875 53.097656 C 153.75 52.890625 151.574219 52.734375 149.394531 52.632812 C 147.210938 52.527344 145.03125 52.476562 142.847656 52.476562 C 69.042969 52.476562 5.378906 114.0625 5.378906 190.011719 L 5.378906 301.730469 L 60.734375 301.730469 Z M 60.734375 298.167969 " fill-opacity="1" fill-rule="nonzero"/></g></svg>